<svg xmlns="http://www.w3.org/2000/svg" viewBox="300 45 300 245" fill="none" stroke="#1e1e1e" stroke-width="1.3"><title>Banking &amp; electronic forms</title><desc>A branch banking terminal, layered electronic forms, and document routing to mail and records.</desc><defs><pattern id="grid" width="20" height="20" patternUnits="userSpaceOnUse"><path d="M20 0H0V20" stroke-opacity=".08"/></pattern></defs><style>text{fill:#1e1e1e;stroke:none;font:11px monospace;letter-spacing:.4px}.small{font-size:9px}.paper{fill:#f8f7f2}.yellow{fill:#e4ff00}.pink{fill:#ff2bd6}.guide{stroke-dasharray:4 5;stroke-opacity:.4}</style><rect width="900" height="360" fill="url(#grid)" stroke="none"/><path class="guide" d="M20 20h860M20 340h860"/><path d="M15 25V15h10m850 0h10v10M15 335v10h10m850 0h10v-10"/><g transform="translate(30 45)"><path d="m15 65 112-45 112 45zM30 78h195M43 78v102m40-102v102m90-102v102m40-102v102M25 192h205M10 208h235"/><rect class="paper" x="85" y="100" width="86" height="120"/><rect class="yellow" x="97" y="113" width="62" height="42"/><path d="M104 128h47m-47 12h30m-30 36h47m-47 13h47"/><circle cx="128" cy="205" r="3"/><text x="4" y="275">01 / BANKING SERVICES</text></g><g transform="translate(330 45)"><rect class="paper" x="67" y="10" width="160" height="208"/><rect class="paper" x="46" y="29" width="160" height="208"/><rect class="paper" x="25" y="48" width="160" height="208"/><path class="yellow" d="M39 65h132v27H39z"/><path d="M49 79h85M40 110h45m15 0h65"/><rect x="40" y="120" width="130" height="24"/><rect x="40" y="155" width="130" height="24"/><rect x="40" y="190" width="10" height="10"/><path d="m41 195 4 4 8-12m9 8h95M40 241h128m-115-7q12-27 10-3 8-25 12 0 6-11 14-6t24-1"/><circle class="pink" cx="206" cy="49" r="10"/><path d="m201 49 4 4 7-9"/><text x="4" y="275">02 / ELECTRONIC FORMS</text></g><g transform="translate(630 45)"><rect class="paper" x="10" y="100" width="70" height="85"/><path d="M23 117h44m-44 13h34m-34 13h44m-44 13h25M80 142h42V65h40m-40 77v80h40"/><circle class="yellow" cx="122" cy="142" r="9"/><rect class="paper" x="170" y="36" width="78" height="58"/><path d="m170 36 39 33 39-33"/><rect class="paper" x="170" y="186" width="78" height="69"/><path d="M183 202h50m-50 13h36m-36 13h50"/><text x="4" y="275">03 / DOCUMENT ROUTING</text></g></svg>
